<svg width="37" height="37" viewBox="0 0 37 37" fill="none" xmlns="http://www.w3.org/2000/svg">
  <path d="M34.5689 14.0572C34.4244 13.6128 34.1515 13.2211 33.7848 12.9315C33.418 12.6419 32.9737 12.4673 32.5079 12.4297L23.9806 11.7418L20.6881 3.77954C20.5101 3.34568 20.207 2.97457 19.8175 2.71338C19.428 2.4522 18.9696 2.31274 18.5007 2.31274C18.0317 2.31274 17.5733 2.4522 17.1838 2.71338C16.7943 2.97457 16.4912 3.34568 16.3132 3.77954L13.0237 11.7403L4.49198 12.4297C4.0254 12.4692 3.58084 12.6455 3.21399 12.9365C2.84715 13.2275 2.57434 13.6203 2.42975 14.0656C2.28515 14.511 2.2752 14.9891 2.40114 15.4401C2.52708 15.8911 2.7833 16.2949 3.13772 16.6009L9.64162 22.2131L7.6601 30.6045C7.54928 31.0604 7.57641 31.539 7.73806 31.9794C7.8997 32.4198 8.18857 32.8023 8.56799 33.0783C8.94741 33.3543 9.40027 33.5113 9.86908 33.5294C10.3379 33.5475 10.8015 33.4259 11.2011 33.1801L18.4999 28.6881L25.8031 33.1801C26.2028 33.423 26.6655 33.5423 27.1329 33.5228C27.6003 33.5033 28.0514 33.346 28.4295 33.0706C28.8077 32.7952 29.0959 32.4141 29.2578 31.9753C29.4198 31.5365 29.4483 31.0595 29.3398 30.6045L27.351 22.2116L33.8549 16.5995C34.2122 16.294 34.4708 15.8893 34.5979 15.4367C34.725 14.9841 34.7149 14.504 34.5689 14.0572ZM32.3518 14.8477L25.3131 20.9181C25.1526 21.0564 25.0332 21.2362 24.968 21.4378C24.9027 21.6395 24.8941 21.8551 24.9431 22.0613L27.0938 31.1379C27.0993 31.1504 27.0999 31.1645 27.0953 31.1774C27.0907 31.1903 27.0814 31.201 27.0692 31.2072C27.0432 31.2275 27.036 31.2231 27.0143 31.2072L19.1055 26.3438C18.9234 26.2318 18.7138 26.1725 18.4999 26.1725C18.2861 26.1725 18.0765 26.2318 17.8944 26.3438L9.98561 31.2101C9.96393 31.2231 9.95815 31.2275 9.93069 31.2101C9.91849 31.2039 9.90914 31.1932 9.90457 31.1803C9.9 31.1674 9.90055 31.1533 9.90612 31.1407L12.0567 22.0642C12.1058 21.858 12.0972 21.6423 12.0319 21.4407C11.9667 21.2391 11.8473 21.0593 11.6867 20.9209L4.64807 14.8506C4.63073 14.8362 4.61483 14.8232 4.62928 14.7784C4.64373 14.7336 4.6553 14.7393 4.67698 14.7364L13.9154 13.9907C14.1273 13.9725 14.3301 13.8962 14.5014 13.7703C14.6728 13.6443 14.8061 13.4735 14.8867 13.2767L18.445 4.66118C18.4566 4.63661 18.4609 4.62504 18.4956 4.62504C18.5303 4.62504 18.5346 4.63661 18.5462 4.66118L22.1132 13.2767C22.1946 13.4736 22.3287 13.6442 22.5008 13.7697C22.673 13.8951 22.8765 13.9706 23.0888 13.9878L32.3272 14.7336C32.3489 14.7336 32.3619 14.7336 32.3749 14.7755C32.388 14.8174 32.3749 14.8333 32.3518 14.8477Z" fill="#F8F8F8"/>
</svg>
